{"title":"Hwayi.A.Monster.Boy.2013.BRRip.480p.x264.AAC-VYTO [P2PDL]","uid":9946942,"size":479287591,"categoryP":"video","categoryS":"movies","magnet":"?xt=urn:btih:2c8be5d3bf9429d628f178c5a83ff3c108d5d7f3&amp;dn=Hwayi.A.Monster.Boy.2013.BRRip.480p.x264.AAC-VYTO+%5BP2PDL%5D&amp;tr=udp%3A%2F%2Ftracker.openbittorrent.com%3A80&amp;tr=udp%3A%2F%2Fopen.demonii.com%3A1337&amp;tr=udp%3A%2F%2Ftracker.coppersurfer.tk%3A6969&amp;tr=udp%3A%2F%2Fexodus.desync.com%3A6969","seeders":9,"leechers":3,"uploader":"ValidusVyto","files":-1,"time":1397326604,"description":"____    ____ ____    ____ .___________.  ______   \n     /   /      /   / |           | /  __    \n    /   /      /   /  `---|  |----`|  |  |  | \n        /     _    _/       |  |     |  |  |  | \n       /        |  |         |  |     |  `--'  | \n    __/         |__|         |__|      ______/  \n                                                  \nPresenting Small Encodes With Quality For Years!\n                                                                                                   \n                                                                                                   \n\nHwayi.A.Monster.Boy.2013.BRRip.480p.x264.AAC-VYTO\n\n\nGenre: Action | Thriller &lt;a href=&quot;\nhttp://www.imdb.com/title/tt2972362/&quot; rel=&quot;nofollow&quot; target=&quot;_NEW&quot;&gt;\nhttp://www.imdb.com/title/tt2972362/&lt;/a&gt;\n\n\nFormat                         : MPEG-4\nFile size                      : 451 MiB\nDuration                       : 2h 5mn\nOverall bit rate               : 503 Kbps\n\nVideo\nFormat                         : AVC\nFormat/Info                    : Advanced Video Codec\nFormat settings, CABAC         : Yes\nFormat settings, ReFrames      : 5 frames\nCodec ID                       : avc1\nCodec ID/Info                  : Advanced Video Coding\nDuration                       : 2h 5mn\nBit rate                       : 460 Kbps\nWidth                          : 720 pixels\nHeight                         : 304 pixels\nDisplay aspect ratio           : 2.35:1\nFrame rate mode                : Constant\nFrame rate                     : 23.976 fps\nBit depth                      : 8 bits\nStream size                    : 413 MiB (91%)\nWriting library                : x264 core 142 r2409 d6b4e63\n\nAudio\nFormat                         : AAC\nBit rate mode                  : Variable\nBit rate                       : 40.0 Kbps\nChannel(s)                     : 2 channels\nChannel positions              : Front: L R\nSampling rate                  : 44.1 KHz\nStream size                    : 35.8 MiB (8%)\nLanguage                       : Korean\n\nSubtitle                       : Yes (English)\n\n &lt;a href=&quot;\nhttp://ultraimg.com/images/MEsxZ.png&quot; rel=&quot;nofollow&quot; target=&quot;_NEW&quot;&gt;\nhttp://ultraimg.com/images/MEsxZ.png&lt;/a&gt; &lt;a href=&quot;\nhttp://ultraimg.com/images/eOnjN.png&quot; rel=&quot;nofollow&quot; target=&quot;_NEW&quot;&gt;\nhttp://ultraimg.com/images/eOnjN.png&lt;/a&gt; &lt;a href=&quot;\nhttp://ultraimg.com/images/8Gi6O.png&quot; rel=&quot;nofollow&quot; target=&quot;_NEW&quot;&gt;\nhttp://ultraimg.com/images/8Gi6O.png&lt;/a&gt; &lt;a href=&quot;\nhttp://ultraimg.com/images/5JUlz.png&quot; rel=&quot;nofollow&quot; target=&quot;_NEW&quot;&gt;\nhttp://ultraimg.com/images/5JUlz.png&lt;/a&gt; &lt;a href=&quot;\nhttp://ultraimg.com/images/Qif7b.png&quot; rel=&quot;nofollow&quot; target=&quot;_NEW&quot;&gt;\nhttp://ultraimg.com/images/Qif7b.png&lt;/a&gt; &lt;a href=&quot;\nhttp://ultraimg.com/images/aFejw.png&quot; rel=&quot;nofollow&quot; target=&quot;_NEW&quot;&gt;\nhttp://ultraimg.com/images/aFejw.png&lt;/a&gt;\n\n\n\n----------------------------------------------------------------------------------------------------\n\n\nRecommend to you to use latest version of VLC player. Install K-Lite Codec Pack or shark007 codecs\nin case of any kind of problem in playback (For non-VLC Media Player users). Alternatively, install\nCore AVC codecs, the fastest decoder that there is coupled with Community Center Codec Pack and play\non Windows Media Player Classic. Check sample to be sure.\n\nEncoder Notes:Looking For Early Access To Anything You Can Provide DVDScr, R5, DVDR, BluRay, Direct\nAudio, Music Releases and Seedboxes. We require dedicated servers, so as to do more \nand fast releases of movies.\n\n","torrent":{"xt":"urn:btih:2c8be5d3bf9429d628f178c5a83ff3c108d5d7f3","amp;dn":"Hwayi.A.Monster.Boy.2013.BRRip.480p.x264.AAC-VYTO+%5BP2PDL%5D","amp;tr":["udp%3A%2F%2Ftracker.openbittorrent.com%3A80","udp%3A%2F%2Fopen.demonii.com%3A1337","udp%3A%2F%2Ftracker.coppersurfer.tk%3A6969","udp%3A%2F%2Fexodus.desync.com%3A6969"],"infoHash":"2c8be5d3bf9429d628f178c5a83ff3c108d5d7f3","infoHashBuffer":{"type":"Buffer","data":[44,139,229,211,191,148,41,214,40,241,120,197,168,63,243,193,8,213,215,243]},"announce":[],"urlList":[]}}